<svg xmlns="http://www.w3.org/2000/svg" width="900" height="560" viewBox="0 0 900 560">
  <rect width="900" height="560" fill="#080a14"/>
  <rect x="68" y="78" width="764" height="405" rx="18" fill="#0f172a" stroke="#334155"/>
  <rect x="105" y="122" width="690" height="54" rx="12" fill="#111827"/>
  <rect x="105" y="205" width="210" height="220" rx="14" fill="#111827"/>
  <rect x="345" y="205" width="210" height="220" rx="14" fill="#111827"/>
  <rect x="585" y="205" width="210" height="220" rx="14" fill="#111827"/>
  <rect x="138" y="245" width="144" height="72" rx="10" fill="#67e8f9" opacity=".25"/>
  <rect x="378" y="245" width="144" height="72" rx="10" fill="#a78bfa" opacity=".25"/>
  <rect x="618" y="245" width="144" height="72" rx="10" fill="#22c55e" opacity=".22"/>
  <rect x="138" y="348" width="128" height="12" rx="6" fill="#cbd5e1"/>
  <rect x="138" y="375" width="92" height="10" rx="5" fill="#64748b"/>
  <rect x="378" y="348" width="128" height="12" rx="6" fill="#cbd5e1"/>
  <rect x="378" y="375" width="92" height="10" rx="5" fill="#64748b"/>
  <rect x="618" y="348" width="128" height="12" rx="6" fill="#cbd5e1"/>
  <rect x="618" y="375" width="92" height="10" rx="5" fill="#64748b"/>
  <circle cx="742" cy="149" r="16" fill="#67e8f9"/>
  <rect x="135" y="142" width="310" height="14" rx="7" fill="#cbd5e1"/>
</svg>
