<svg xmlns="http://www.w3.org/2000/svg" width="900" height="560" viewBox="0 0 900 560">
  <defs>
    <linearGradient id="bg" x1="0" x2="1" y1="0" y2="1">
      <stop stop-color="#05070f"/>
      <stop offset=".52" stop-color="#111827"/>
      <stop offset="1" stop-color="#1e1b4b"/>
    </linearGradient>
  </defs>
  <rect width="900" height="560" fill="url(#bg)"/>
  <rect x="62" y="72" width="776" height="416" rx="22" fill="#0f172a" stroke="#334155"/>
  <rect x="96" y="112" width="190" height="336" rx="18" fill="#111827"/>
  <rect x="320" y="112" width="210" height="142" rx="18" fill="#111827"/>
  <rect x="560" y="112" width="240" height="142" rx="18" fill="#111827"/>
  <rect x="320" y="286" width="480" height="162" rx="18" fill="#111827"/>
  <rect x="128" y="146" width="102" height="13" rx="7" fill="#fee2e2"/>
  <rect x="128" y="194" width="126" height="11" rx="6" fill="#64748b"/>
  <rect x="128" y="232" width="92" height="11" rx="6" fill="#64748b"/>
  <rect x="128" y="270" width="118" height="11" rx="6" fill="#64748b"/>
  <circle cx="425" cy="183" r="48" fill="#ef4444" opacity=".2"/>
  <path d="M425 135a48 48 0 0 1 39 76" fill="none" stroke="#ef4444" stroke-width="16" stroke-linecap="round"/>
  <rect x="590" y="148" width="92" height="13" rx="7" fill="#fee2e2"/>
  <rect x="590" y="185" width="176" height="12" rx="6" fill="#64748b"/>
  <rect x="590" y="215" width="135" height="12" rx="6" fill="#64748b"/>
  <path d="M360 395c48-75 88 20 130-35 44-58 84 4 126-42 45-49 90 34 138-24" fill="none" stroke="#f87171" stroke-width="9" stroke-linecap="round"/>
  <circle cx="360" cy="395" r="8" fill="#ef4444"/>
  <circle cx="490" cy="360" r="8" fill="#ef4444"/>
  <circle cx="616" cy="318" r="8" fill="#ef4444"/>
  <circle cx="754" cy="294" r="8" fill="#ef4444"/>
</svg>
